<?xml version="1.0" encoding="UTF-8" standalone="no"?>
<!DOCTYPE svg PUBLIC "-//W3C//DTD SVG 1.1//EN" "http://www.w3.org/Graphics/SVG/1.1/DTD/svg11.dtd">
<svg xmlns="http://www.w3.org/2000/svg" version="1.1" viewBox="0.00 0.00 542.00 417.00">
    <path fill="#ffffff" d="
  M 527.87 152.26
  C 534.58 197.11 521.33 246.03 495.53 283.55
  C 494.61 284.88 494.25 284.75 494.46 283.14
  C 495.55 274.66 494.88 261.55 485.38 257.87
  C 483.15 257.00 479.03 256.71 473.02 256.98
  C 447.73 258.15 422.48 260.56 397.17 262.97
  C 396.16 263.06 395.22 262.46 394.88 261.51
  C 385.10 233.86 378.12 205.85 375.90 176.50
  C 372.97 137.76 378.10 86.20 423.76 73.94
  C 439.83 69.63 456.99 71.22 472.26 76.67
  C 505.72 88.62 522.84 118.67 527.87 152.26
  Z
  M 465.5922 141.6473
  C 460.83 122.11 440.95 110.18 421.1867 114.9959
  C 401.42 119.81 389.27 139.56 394.0278 159.0927
  C 398.79 178.63 418.67 190.56 438.4333 185.7441
  C 458.20 180.93 470.35 161.18 465.5922 141.6473
  Z" />
    <path fill="#ffffff" d="
  M 126.08 76.63
  C 159.61 90.78 167.39 129.98 166.36 162.25
  C 165.27 196.23 158.91 228.60 147.24 260.53
  C 146.63 262.20 145.43 262.96 143.66 262.80
  C 117.76 260.45 92.45 257.91 66.75 256.41
  C 56.51 255.82 50.24 259.03 48.00 269.49
  C 47.03 274.00 46.73 278.23 47.11 282.16
  C 47.35 284.63 46.80 284.82 45.47 282.73
  C 15.57 235.79 0.40 173.65 22.82 121.54
  C 32.02 100.14 49.26 83.25 71.72 75.91
  C 88.57 70.41 109.40 69.59 126.08 76.63
  Z
  M 143.9690 168.8204
  C 154.13 151.51 148.26 129.20 130.8593 118.9963
  C 113.46 108.79 91.13 114.55 80.9710 131.8596
  C 70.81 149.17 76.68 171.48 94.0807 181.6837
  C 111.48 191.89 133.81 186.13 143.9690 168.8204
  Z" />
    <path fill="#ffffff" d="
  M 188.10 340.45
  C 168.25 330.82 150.08 317.91 133.58 301.73
  C 132.83 301.00 132.98 300.60 134.03 300.53
  C 134.72 300.48 135.63 300.57 136.75 300.80
  C 189.97 311.82 242.46 315.50 298.50 313.70
  C 335.58 312.51 371.97 307.97 407.66 300.07
  C 408.87 299.80 409.07 300.13 408.24 301.06
  C 407.51 301.89 406.65 302.76 405.67 303.67
  C 395.96 312.62 385.62 320.77 374.65 328.13
  C 351.12 343.92 325.24 353.47 296.99 356.79
  C 260.35 361.09 221.56 356.69 188.10 340.45
  Z" />
</svg>